<svg version="1.2" xmlns="http://www.w3.org/2000/svg" viewBox="0 0 495 168" width="1200" height="407">
	<title>MDV VET LOG (2)</title>
	<style>
		.s0 { fill: #6296b4 } 
		.s1 { fill: #e26025 } 
	</style>
	<g id="Layer 1">
		<g id="&lt;Group&gt;">
			<g id="&lt;Group&gt;">
				<path id="&lt;Compound Path&gt;" class="s0" d="m290.6-40.8q-7.7 0-12-9.1l-26.7-58.2q-1.9-4.2-1.9-7.7 0-3.4 2.5-8.1 2.5-4.6 10.5-4.5 7.9 0 12 8.9l15.6 34.1 15.5-34.1q4-8.9 12-8.9 8-0.1 10.5 4.5 2.5 4.7 2.5 8.1 0 3.5-1.9 7.7l-26.7 58.2q-4.2 9.1-11.9 9.1z"/>
			</g>
			<path id="&lt;Path&gt;" class="s0" d="m206.1-54c0 0 0 0.8-0.3 2.2q0 0 0 0.1c-0.5 2.6-1.7 6.8-5.1 10.7h12.3q21.4-2.5 29.4-23.6 4-9.8 4-19.9 0-10.1-4-20-8-21.2-29.4-23.6h-25.9q-12.8 0-12.8 11.2v61.1q0 0 0 0 0.6-0.1 1.3-0.2c0.3 0 0.6-0.2 0.7-0.5 0.1-0.3 0.3-0.5 0.5-0.7q1.2-1.5 2.9-2.3 0.8-0.3 1.3-0.9 0.8-0.8 1.4-1.8c2.1-2.7 3.6-5.8 4.6-9 0.7-1.9 1.2-3.8 1.9-5.6 1.1-2.7 2.4-5.3 4.3-7.6 0.1-0.2 0.1-0.3 0-0.5q-0.2-0.4-0.4-0.8c-0.4-0.9-0.8-1.9-0.8-2.9 0-1.1 0.3-2.2 0.8-3.3 0.2-0.4 0.4-0.9 0.5-1.4 0.3-1.3 0.9-2.6 1.5-3.8q0.4-0.6 0.7-1.2 1.2-2.1 2.3-4.2c0.9-1.6 1.6-3.2 2.1-4.9q0.2-1 0.3-2 0.1-0.6 0.3-1.2 0.1-0.4 0.5-0.9c0.4-0.6 0.6-0.6 1 0q0.1 0.1 0.1 0.2 0.2 0.4 0.4 0.7 0.8 1.5 1.1 3.2c0.3 1.5 0.2 3 0 4.6q-0.3 1.9-0.1 3.8c0.2 1 0.5 2.1 0.9 3.1 0.1 0.4 0.3 0.8 0.6 1.1q-0.1-0.5-0.4-0.9-0.1-0.3 0.1-0.6 0.1-0.1 0.2-0.2 1.4-2.1 2.8-4.3c0.8-1.3 1.6-2.7 2.2-4.2q0.3-0.7 0.2-1.5c-0.1-0.6-0.2-1.2-0.1-1.8 0-0.1 0-0.3 0-0.4 0.2-0.3 0.4-0.4 0.7-0.1q0.1 0.1 0.2 0.3 0.3 0.5 0.4 1.1c0.3 1.3 0.2 2.6-0.2 3.8-0.3 1-0.6 2.1-0.9 3.1-0.2 1.4-0.4 2.9-0.1 4.3q0.3 1.4 0.8 2.7c0.1 0.2 0.2 0.4 0.2 0.7-1.7-1-3.6-1.2-5.5-1.4 0.2 0.1 0.3 0.1 0.5 0.2q0.6 0.1 1.2 0.2c1.7 0.4 3.3 1 4.8 1.9 1 0.6 1.8 1.4 2.6 2.3 0.1 0.1 0.2 0.2 0.4 0.2q-1.5-1.9-3.6-3.3c0.4 0 0.8 0.1 1.2 0.2 1 0.4 1.9 0.9 2.9 1.4 1 0.7 2 1.4 2.7 2.4q0.4 0.6 1 0.8c0.2 0.1 0.3 0.2 0.5 0.3 0.5 0.3 0.8 0.7 0.8 1.3 0 1-0.1 2.1 0.4 3.1q-0.1 0-0.2 0-1.1-0.8-2.1-1.6c-0.5-0.5-0.9-1.1-1.2-1.8-0.2-0.7-0.7-1.2-1.2-1.6-0.5-0.3-1-0.3-1.5-0.2-0.1 0-0.2 0-0.2 0.2q0.1 0.1 0.1 0c1.1-0.3 2.2 0.4 2.5 1.5q0.2 0.8 0.7 1.5 1.1 1.5 2.7 2.4 1 0.5 2.1 0.9 1.5 0.7 3.2 1 0 0 0.1 0 0.6 0.1 1.2 0.5c1.9 1.1 3.8 2.1 6 2.5q0.7 0.2 1.2 0.7 0.6 0.6 0.2 1.5-0.2 0.4-0.5 0.7-0.2 0.3-0.3 0.8 0 0.2-0.1 0.4c-0.1 0.5-0.3 0.9-0.8 1.1-0.4 0.2-0.6 0.5-0.5 0.9q0 0.2 0 0.3c0 1-0.3 1.9-0.9 2.6-0.6 0.7-1.3 1.1-2.1 1.4-0.2 0.1-0.4 0.2-0.5 0.1-0.1-0.1 0-0.2 0.1-0.2q0.2-0.2 0.5-0.3c0.5-0.3 1-0.6 1.5-0.9 0.4-0.4 0.5-0.8 0.1-1.2q-0.2-0.2-0.4-0.4c0.6-0.7 0.6-1.5 1.2-2.1-0.2-0.1-0.4-0.1-0.5-0.1-0.4-0.1-0.8-0.3-0.9-0.8-0.2-0.7-0.1-0.6 0.4-0.6 0.7 0 1.3-0.2 1.7-0.6 0.5-0.5 0.5-1.2-0.2-1.6q-0.1-0.2-0.3-0.2c-0.9-0.3-1.4 0-1.8 0.6q0 0.2-0.1 0.3c-0.2 0.3-0.3 0.3-0.5 0.2q-0.1-0.1-0.2-0.3-0.4-0.3-0.7-0.7c-0.1-0.2-0.2-0.3-0.3-0.4-0.1 0-0.2-0.1-0.3 0 0 0.1 0 0.2 0 0.2 0.1 0.5 0.2 0.9 0.5 1.3 0.2 0.4 0.5 0.7 0.9 0.9 0.4 0.1 0.6 0.4 0.6 0.8 0.1 0.4 0.2 0.7 0.6 0.9 0.2 0.1 0.4 0.1 0.5 0.3 0.1 0.3 0 0.5-0.1 0.7q0 0.1 0 0.2c-0.2 0.4-0.4 0.8-0.8 1.1-1.3 0.8-2.6 1.5-3.9 2.1q-0.2 0.1-0.5 0.3-2.4 1-5 0.8-1.1-0.1-2.3-0.1-0.9 0-1.8 0c-0.4 0.1-0.9 0.1-1.4 0.2q0.6 0 1.2 0 0.9 0 1.9 0 1.1 0 2.2 0.1c1.7 0.2 3.4 0 5-0.6q0.1-0.1 0.2-0.1c1.4-0.6 2.7-1.5 4-2.3 0.1-0.1 0.3-0.3 0.5-0.3 0.2 0 0.2 0.3 0.4 0.4 0.3 0.3 0.3 0.5-0.2 0.8q-0.4 0.3-1 0.5c-0.5 0.3-1 0.7-1.3 1.2q-0.4 0.7-1.2 1-0.6 0.3-1.2 0.4c-0.9 0.2-1.9 0.2-2.9-0.2q-0.5-0.2-1.2-0.1-0.6 0-1.2 0.1-0.3 0-0.6 0.3-0.4 0.4-0.8 0.8c-0.8 0.6-1.7 0.8-2.6 0.5q0 0-0.1 0c-0.5-0.2-0.9-0.5-1.4-0.8q-0.5-0.3-1-0.5-0.9-0.5-1.7-0.1-0.2 0.1-0.4 0.2c-1 0.5-1.7 1.3-2.4 2.1-1.1 1.4-2 2.9-2.8 4.4q-0.2 0.6-0.5 1.1-0.2 0.3-0.1 0.5c0 1.2-0.1 2.3-0.2 3.5"/>
			<g id="&lt;Group&gt;">
				<path id="&lt;Path&gt;" class="s0" d="m150.4-128.1q-7.5 0-11.9 5.3l-17.9 21.5-18.1-21.5q-4.4-5.2-11.7-5.3-12.8-0.2-12.8 11.2v29.2c1.6-1.7 2.9-2.6 3.1-2.3 0.6 0.7-0.3 6.9-0.3 6.9 0 0 6-9.9 6.3-6.7 0.4 3.1-1.2 8.6-1.2 8.6 5.2 1.1 6.2 3.6 7.1 5.9 0.7 1.7 3 3.4 4.4 4.3 2 1.3 1.3 2.3-0.2 4.7-1.6 2.6-4.9 2.2-6.2 3-0.9 0.5-2.7 2.8-3.6 5.9-0.9 3.2 1.2 12 3.3 16.4q0.1 0 0.1 0 12.8 0 12.8-11.2v-31.1c0-1.5 1.9-2.2 2.8-1.1l0.7 0.8 9.5 11c2.1 2.5 5.9 2.5 8 0l9.9-11.6c1.1-1.2 3.1-0.5 3.1 1.2v30.8q0 11.2 12.8 11.2 12.8 0 12.8-11.2v-64.7q0-11.2-12.8-11.2z"/>
				<path id="&lt;Path&gt;" class="s0" d="m88.2-75.1c-0.7-0.1-1.3 0.2-1.2 0.6 0.1 0.4 0.5 0.8 1.2 0.9 0.7 0.1 1.7-0.2 1.3-0.6-0.3-0.3-0.6-0.8-1.3-0.9z"/>
				<path id="&lt;Path&gt;" class="s0" d="m88-71.5c-2.2-0.8-7.9-0.1-10.2 1.2 2.4-0.7 7.8-1.5 10.2-1.2z"/>
				<path id="&lt;Path&gt;" class="s0" d="m88-69.9c-2.3-0.5-7.8 1.1-9.9 2.8 2.2-1.1 7.4-2.8 9.9-2.8z"/>
				<path id="&lt;Path&gt;" class="s0" d="m89.3-68.5c-2.4 0.1-7.4 2.8-9.1 4.9 2-1.5 6.7-4.3 9.1-4.9z"/>
			</g>
			<path id="&lt;Compound Path&gt;" class="s0" d="m340.5-84.6l1.8 33.8 1.7-33.8h5.8l-4.6 43.8h-5.9l-4.6-43.8z"/>
			<path id="&lt;Compound Path&gt;" class="s0" d="m364.5-84.6v5.4h-5.6v13.8h4.8v5.4h-4.8v13.9h5.6v5.3h-11.1v-43.8z"/>
			<path id="&lt;Compound Path&gt;" class="s0" d="m367.9-84.6h15.5v5.4h-5v38.4h-5.5v-38.4h-5z"/>
			<path id="&lt;Compound Path&gt;" class="s1" d="m118.8-14.8h-2.6v-15.2h2.6v1.5q0.2-1 0.6-1.4 0.4-0.4 1.2-0.4 2 0 2 2.2v2.9h-2.6v-1.8q0-0.5-0.2-0.8-0.1-0.2-0.4-0.2-0.3 0-0.5 0.2-0.1 0.3-0.1 0.8z"/>
			<path id="&lt;Compound Path&gt;" fill-rule="evenodd" class="s1" d="m150.7-18.2q0 2-0.7 2.7-0.8 0.7-2.4 0.7h-3.7v-21.4h3.7q1.6 0 2.4 0.8 0.7 0.8 0.7 2.8zm-2.7-14.7q0-0.7-0.1-0.9-0.1-0.2-0.5-0.2l-0.8-0.1v17.1h0.8q0.4 0 0.5-0.2 0.1-0.3 0.1-0.9z"/>
			<path id="&lt;Compound Path&gt;" fill-rule="evenodd" class="s1" d="m163.9-17.3q0 2.8-3.2 2.8-3.2 0-3.2-2.9v-10q0-2.9 3.2-2.9 3.2 0 3.2 2.8v3.4h-3.8v6.3q0 0.5 0.1 0.8 0.2 0.2 0.5 0.2 0.3 0 0.5-0.2 0.1-0.3 0.1-0.8v-2.6h2.6zm-3.8-9.1h1.2v-0.6q0-0.6-0.1-0.8-0.2-0.2-0.5-0.2-0.3 0-0.5 0.2-0.1 0.2-0.1 0.8z"/>
			<path id="&lt;Compound Path&gt;" class="s1" d="m173.1-21.4q-0.7-0.3-1.2-0.6-0.5-0.2-0.8-0.5-0.2-0.3-0.3-0.6-0.1-0.4-0.1-0.9v-3.5q0-2.8 3.2-2.8 3.2 0 3.2 2.8v2.5h-2.6v-2q0-0.5-0.1-0.8-0.1-0.2-0.5-0.2-0.3 0-0.4 0.2-0.2 0.3-0.2 0.8v2.4q0 0.5 0.3 0.7 0.2 0.2 1.1 0.5 0.7 0.3 1.2 0.6 0.5 0.3 0.8 0.6 0.2 0.2 0.3 0.6 0.1 0.3 0.1 0.8v3.5q0 2.8-3.1 2.8-3.3 0-3.3-2.8v-2.5h2.6v2q0 0.5 0.2 0.8 0.1 0.2 0.4 0.2 0.4 0 0.5-0.2 0.1-0.3 0.1-0.8v-2.4q0-0.2-0.1-0.4 0-0.1-0.2-0.2-0.1-0.2-0.4-0.3-0.2-0.1-0.7-0.3z"/>
			<path id="&lt;Compound Path&gt;" class="s1" d="m186.5-33.5v2.2h-2.6v-2.2zm0 3.5v15.2h-2.6v-15.2z"/>
			<path id="&lt;Compound Path&gt;" class="s1" d="m195.9-14.8h-2.6v-15.2h2.6v1.5q0.2-1 0.6-1.4 0.4-0.4 1.2-0.4 1.9 0 2 2 0.1-1.1 0.6-1.6 0.4-0.4 1.2-0.4 2 0 2 2.3v13.2h-2.6v-12.2q0-0.5-0.1-0.8-0.1-0.2-0.5-0.2-0.3 0-0.4 0.2-0.2 0.2-0.2 0.8v12.2h-2.6v-12.3q0-0.5-0.2-0.7-0.1-0.2-0.4-0.2-0.3 0-0.5 0.2-0.1 0.3-0.1 0.8z"/>
			<path id="&lt;Compound Path&gt;" class="s1" d="m212.9-33.5v2.2h-2.6v-2.2zm0 3.5v15.2h-2.6v-15.2z"/>
			<path id="&lt;Compound Path&gt;" class="s1" d="m222.3-14.8h-2.6v-15.2h2.6v1.5q0.2-1 0.6-1.4 0.4-0.4 1.2-0.4 2 0 2 2.2v2.9h-2.6v-1.8q0-0.5-0.1-0.8-0.2-0.2-0.5-0.2-0.3 0-0.4 0.2-0.2 0.3-0.2 0.8z"/>
			<path id="&lt;Compound Path&gt;" class="s1" d="m247-36.2h7.5v2.7h-2.4v18.7h-2.7v-18.7h-2.4z"/>
			<path id="&lt;Compound Path&gt;" fill-rule="evenodd" class="s1" d="m267.7-17.4q0 2.9-3.2 2.9-3.2 0-3.2-2.9v-10q0-2.9 3.2-2.9 3.2 0 3.2 2.9zm-3.8-0.4q0 0.6 0.1 0.8 0.1 0.3 0.5 0.3 0.3 0 0.4-0.3 0.1-0.2 0.1-0.8v-9.1q0-0.6-0.1-0.9-0.1-0.2-0.4-0.2-0.4 0-0.5 0.2-0.1 0.3-0.1 0.9z"/>
			<path id="&lt;Compound Path&gt;" class="s1" d="m276.9-21.4q-0.8-0.3-1.2-0.6-0.5-0.2-0.8-0.5-0.3-0.3-0.3-0.6-0.1-0.4-0.1-0.9v-3.5q0-2.8 3.2-2.8 3.2 0 3.2 2.8v2.5h-2.6v-2q0-0.5-0.1-0.8-0.2-0.2-0.5-0.2-0.3 0-0.5 0.2-0.1 0.3-0.1 0.8v2.4q0 0.5 0.2 0.7 0.3 0.2 1.1 0.5 0.8 0.3 1.3 0.6 0.5 0.3 0.8 0.6 0.2 0.2 0.3 0.6 0.1 0.3 0.1 0.8v3.5q0 2.8-3.2 2.8-3.2 0-3.2-2.8v-2.5h2.6v2q0 0.5 0.1 0.8 0.2 0.2 0.5 0.2 0.3 0 0.5-0.2 0.1-0.3 0.1-0.8v-2.4q0-0.2-0.1-0.4 0-0.1-0.2-0.2-0.1-0.2-0.4-0.3-0.3-0.1-0.7-0.3z"/>
			<path id="&lt;Compound Path&gt;" class="s1" d="m290.3-33.5v2.2h-2.6v-2.2zm0 3.5v15.2h-2.6v-15.2z"/>
			<path id="&lt;Compound Path&gt;" class="s1" d="m303.5-20.4v3q0 2.9-3.2 2.9-3.3 0-3.3-2.9v-10q0-2.9 3.3-2.9 3.2 0 3.2 2.9v3h-2.6v-2.6q0-0.5-0.2-0.8-0.1-0.2-0.4-0.2-0.4 0-0.5 0.2-0.1 0.3-0.1 0.8v9.2q0 0.5 0.1 0.8 0.1 0.2 0.5 0.2 0.3 0 0.4-0.2 0.2-0.3 0.2-0.8v-2.6z"/>
			<path id="&lt;Path&gt;" class="s1" d="m299.5-31.3h1.5l2.5-2.5c0 0-0.5-0.9-2-0.4z"/>
			<path id="&lt;Path&gt;" class="s1" d="m281-33.4c0 0-0.6-0.9-2.1-0.3l-1.2 1.7-1.3-1.7c-1.4-0.6-2 0.3-2 0.3l2.5 2.5h1.5 0.1z"/>
			<path id="&lt;Compound Path&gt;" fill-rule="evenodd" class="s1" d="m112.2-18.2q0 1.9-0.8 2.7-0.7 0.7-2.4 0.7h-3.7v-21.4h3.7q1.7 0 2.4 0.8 0.8 0.7 0.8 2.7zm-2.7-14.6q0-0.7-0.1-0.9-0.2-0.3-0.6-0.3h-0.8v17.1h0.8q0.4 0 0.6-0.2 0.1-0.3 0.1-1z"/>
		</g>
		<g id="&lt;Group&gt;">
			<path id="&lt;Compound Path&gt;" class="s0" d="m301 124.8q-7.7 0-12-9.2l-26.7-58.2q-2-4.2-2-7.6 0-3.5 2.6-8.1 2.5-4.7 10.4-4.6 8 0.1 12.1 9l15.6 34 15.5-34q4-8.9 12-9 8-0.1 10.5 4.6 2.5 4.6 2.5 8.1 0 3.4-1.9 7.6l-26.8 58.2q-4.1 9.2-11.8 9.2z"/>
		</g>
		<path id="&lt;Path&gt;" class="s0" d="m216.5 111.5c0 0 0 0.9-0.3 2.2q0 0.1 0 0.1c-0.5 2.6-1.7 6.9-5.1 10.7h12.3q21.4-2.4 29.4-23.6 4-9.8 4-19.9 0-10.1-4-20-8-21.1-29.4-23.6h-25.9q-12.8 0-12.8 11.2v61.1q0 0 0 0 0.6-0.1 1.2-0.2c0.4 0 0.7-0.1 0.8-0.5 0.1-0.3 0.3-0.5 0.5-0.7q1.1-1.5 2.9-2.3 0.8-0.3 1.3-0.9 0.7-0.8 1.4-1.7c2.1-2.8 3.6-5.8 4.6-9.1 0.6-1.8 1.2-3.7 1.9-5.6 1.1-2.7 2.4-5.3 4.3-7.6 0.1-0.2 0.1-0.3 0-0.4q-0.3-0.5-0.5-0.9c-0.4-0.9-0.7-1.8-0.7-2.8 0-1.2 0.3-2.3 0.8-3.3 0.2-0.5 0.4-1 0.5-1.5 0.3-1.3 0.9-2.5 1.5-3.7q0.4-0.7 0.7-1.3 1.2-2.1 2.3-4.1c0.9-1.6 1.6-3.3 2-5q0.3-1 0.4-2 0.1-0.6 0.3-1.1 0.1-0.5 0.4-0.9c0.5-0.7 0.6-0.7 1.1-0.1q0 0.1 0.1 0.2 0.2 0.4 0.4 0.8 0.8 1.5 1.1 3.1c0.3 1.6 0.2 3.1 0 4.6q-0.3 1.9-0.1 3.8c0.1 1.1 0.5 2.1 0.9 3.1 0.1 0.4 0.3 0.8 0.6 1.1q-0.1-0.4-0.4-0.8-0.2-0.3 0.1-0.6 0.1-0.2 0.1-0.3 1.5-2.1 2.9-4.2c0.8-1.4 1.6-2.8 2.2-4.3q0.3-0.7 0.2-1.5c-0.1-0.6-0.2-1.2-0.2-1.8 0-0.1 0-0.2 0.1-0.4 0.2-0.3 0.4-0.4 0.7-0.1q0.1 0.2 0.2 0.4 0.3 0.5 0.4 1c0.3 1.3 0.1 2.6-0.2 3.8-0.3 1.1-0.7 2.1-0.9 3.2-0.3 1.4-0.4 2.8-0.1 4.2q0.3 1.4 0.8 2.7c0.1 0.2 0.2 0.4 0.2 0.7-1.7-0.9-3.6-1.2-5.5-1.4 0.2 0.1 0.3 0.2 0.5 0.2q0.6 0.1 1.2 0.3c1.7 0.3 3.3 0.9 4.7 1.8 1.1 0.6 1.9 1.4 2.7 2.3 0.1 0.1 0.2 0.2 0.3 0.3q-1.4-2-3.5-3.3c0.4-0.1 0.8 0 1.2 0.2 1 0.3 1.9 0.8 2.8 1.3 1.1 0.7 2 1.4 2.8 2.5q0.4 0.5 1 0.7c0.2 0.1 0.3 0.2 0.5 0.3 0.5 0.3 0.8 0.7 0.8 1.3 0 1.1-0.1 2.1 0.4 3.1q-0.1 0.1-0.2 0-1.1-0.7-2.1-1.6c-0.5-0.5-1-1-1.2-1.7-0.2-0.7-0.7-1.2-1.2-1.6-0.5-0.4-1-0.4-1.5-0.3-0.1 0-0.2 0.1-0.2 0.2q0 0.1 0.1 0.1c1.1-0.4 2.2 0.3 2.5 1.4q0.2 0.9 0.7 1.6 1.1 1.4 2.7 2.3 1 0.6 2.1 1 1.5 0.6 3.1 0.9 0.1 0 0.2 0 0.6 0.2 1.2 0.5c1.9 1.1 3.8 2.1 6 2.6q0.6 0.1 1.1 0.6 0.7 0.7 0.3 1.5-0.2 0.4-0.5 0.7-0.3 0.3-0.3 0.8 0 0.2-0.1 0.4c-0.1 0.6-0.3 1-0.8 1.2-0.4 0.1-0.6 0.4-0.5 0.8q0 0.2 0 0.4c0 0.9-0.3 1.8-0.9 2.6-0.6 0.6-1.4 1-2.2 1.4-0.1 0-0.3 0.1-0.4 0-0.1-0.1 0-0.1 0.1-0.2q0.2-0.1 0.5-0.3c0.5-0.3 1-0.5 1.5-0.9 0.4-0.4 0.4-0.7 0.1-1.2q-0.2-0.2-0.4-0.4c0.5-0.6 0.6-1.5 1.1-2.1-0.1-0.1-0.3 0-0.4-0.1-0.4-0.1-0.8-0.3-1-0.8-0.1-0.7 0-0.6 0.5-0.5 0.7 0 1.2-0.2 1.7-0.7 0.5-0.5 0.4-1.2-0.2-1.6q-0.1-0.1-0.4-0.2c-0.8-0.2-1.3 0-1.7 0.7q-0.1 0.1-0.1 0.3c-0.2 0.2-0.3 0.2-0.5 0.1q-0.2-0.1-0.3-0.2-0.3-0.4-0.6-0.8c-0.1-0.1-0.2-0.3-0.3-0.4-0.1 0-0.2 0-0.3 0-0.1 0.1-0.1 0.2 0 0.3 0.1 0.4 0.2 0.8 0.4 1.2 0.3 0.4 0.6 0.8 1 0.9 0.4 0.2 0.6 0.4 0.6 0.8 0 0.4 0.2 0.7 0.6 0.9 0.2 0.1 0.4 0.1 0.5 0.4 0.1 0.2-0.1 0.4-0.1 0.6q0 0.1-0.1 0.2c-0.2 0.4-0.3 0.8-0.7 1.1-1.3 0.8-2.6 1.5-3.9 2.2q-0.3 0.1-0.5 0.2-2.4 1-5 0.8-1.2-0.1-2.3-0.1-0.9 0-1.8 0.1c-0.5 0-0.9 0-1.4 0.2q0.6 0 1.1 0 1-0.1 2-0.1 1.1 0 2.2 0.1c1.7 0.2 3.4 0 5-0.6q0.1-0.1 0.2-0.1c1.4-0.6 2.7-1.4 4-2.3 0.1-0.1 0.3-0.2 0.4-0.3 0.3 0 0.3 0.3 0.4 0.4 0.4 0.4 0.4 0.6-0.1 0.8q-0.5 0.3-1 0.6c-0.5 0.2-1 0.6-1.3 1.1q-0.5 0.7-1.2 1.1-0.6 0.2-1.2 0.4c-0.9 0.2-1.9 0.2-2.9-0.2q-0.6-0.3-1.2-0.2-0.6 0-1.2 0.1-0.4 0.1-0.6 0.3-0.4 0.5-0.9 0.9c-0.7 0.6-1.6 0.7-2.5 0.4q-0.1 0-0.1 0c-0.5-0.1-1-0.4-1.4-0.7q-0.5-0.4-1.1-0.6-0.8-0.4-1.6-0.1-0.2 0.1-0.4 0.2c-1 0.5-1.8 1.3-2.4 2.2-1.1 1.3-2 2.8-2.8 4.3q-0.3 0.6-0.5 1.1-0.2 0.3-0.2 0.6c0.1 1.1 0 2.3-0.1 3.4"/>
		<g id="&lt;Group&gt;">
			<path id="&lt;Path&gt;" class="s0" d="m160.8 37.4q-7.5 0-11.9 5.3l-17.9 21.6-18.1-21.6q-4.4-5.2-11.7-5.3-12.8-0.2-12.8 11.2v29.2c1.6-1.6 2.9-2.6 3.1-2.3 0.6 0.8-0.3 7-0.3 7 0 0 5.9-10 6.3-6.8 0.4 3.2-1.2 8.6-1.2 8.6 5.2 1.1 6.2 3.6 7.1 6 0.7 1.6 3 3.3 4.3 4.2 2.1 1.4 1.4 2.3-0.1 4.7-1.7 2.7-4.9 2.2-6.2 3.1-0.9 0.5-2.7 2.8-3.6 5.8-1 3.3 1.2 12.1 3.3 16.4q0 0 0.1 0 12.8 0 12.8-11.2v-31.1c0-1.5 1.8-2.2 2.8-1l0.7 0.7 9.4 11.1c2.2 2.4 6 2.4 8.1-0.1l9.9-11.5c1-1.3 3.1-0.5 3.1 1.1v30.8q0 11.2 12.8 11.2 12.8 0 12.8-11.2v-64.7q0-11.2-12.8-11.2z"/>
			<path id="&lt;Path&gt;" class="s0" d="m98.6 90.4c-0.7 0-1.4 0.2-1.2 0.6 0.1 0.5 0.4 0.8 1.1 0.9 0.8 0.1 1.8-0.2 1.4-0.5-0.3-0.4-0.6-0.9-1.3-1z"/>
			<path id="&lt;Path&gt;" class="s0" d="m98.4 94.1c-2.2-0.8-7.9-0.2-10.3 1.2 2.4-0.8 7.8-1.6 10.3-1.2z"/>
			<path id="&lt;Path&gt;" class="s0" d="m98.4 95.6c-2.3-0.4-7.8 1.1-9.9 2.8 2.2-1.1 7.4-2.8 9.9-2.8z"/>
			<path id="&lt;Path&gt;" class="s0" d="m99.7 97c-2.4 0.1-7.4 2.8-9.1 5 2-1.6 6.7-4.4 9.1-5z"/>
		</g>
		<path id="&lt;Compound Path&gt;" class="s0" d="m350.9 81l1.7 33.7 1.7-33.7h5.9l-4.6 43.8h-6l-4.5-43.8z"/>
		<path id="&lt;Compound Path&gt;" class="s0" d="m374.9 81v5.3h-5.6v13.9h4.8v5.4h-4.8v13.8h5.6v5.4h-11.1v-43.8z"/>
		<path id="&lt;Compound Path&gt;" class="s0" d="m378.3 81h15.5v5.3h-5v38.5h-5.5v-38.5h-5z"/>
	</g>
</svg>